# Blender v3.0.0 OBJ File: ''
# www.blender.org
mtllib turbo.mtl
o spcbonturbo2
v -1.238853 2.958393 -0.649233
v -0.888411 7.390566 0.845062
v -0.881202 7.390566 -0.860282
v -0.888411 7.390566 0.845062
v 0.775164 5.156478 0.706102
v 1.604412 7.947384 0.855595
v 0.781137 5.156478 -0.707270
v -1.238853 2.958393 -0.649233
v -0.881202 7.390566 -0.860282
v 0.775164 5.156478 0.706102
v 0.781137 5.156478 -0.707270
v 1.611615 7.947384 -0.849749
v 0.110583 3.543219 -0.649673
v 2.790765 4.890399 -0.698780
v -0.442170 0.000000 -0.561093
v -1.244259 2.958393 0.630996
v 1.611615 7.947384 -0.849749
v -0.888411 7.390566 0.845062
v 1.611615 7.947384 -0.849749
v -0.881202 7.390566 -0.860282
v -0.442170 0.000000 -0.561093
v 2.790765 4.890399 -0.698780
v 2.784795 4.890399 0.714589
v 2.784795 4.890399 0.714589
v 0.781137 5.156478 -0.707270
v 0.775164 5.156478 0.706102
v -0.446859 -0.000000 0.549591
v 2.784795 4.890399 0.714589
v 0.105120 3.543219 0.642841
v -0.442170 0.000000 -0.561093
v 0.105120 3.543219 0.642841
v 0.110583 3.543219 -0.649673
v -1.244259 2.958393 0.630996
v 2.790765 4.890399 -0.698780
v 1.604412 7.947384 0.855595
v 1.604412 7.947384 0.855595
v 0.110583 3.543219 -0.649673
v 0.105120 3.543219 0.642841
v -1.244259 2.958393 0.630996
v -1.238853 2.958393 -0.649233
v -0.446859 -0.000000 0.549591
v -0.446859 -0.000000 0.549591
vt 0.164124 0.022583
vt 0.012695 0.471252
vt 0.185303 0.471252
vt 0.523743 0.913452
vt 0.734802 0.629883
vt 0.840088 0.984070
vt 0.734802 0.629883
vt 0.478455 0.350891
vt 0.523743 0.913452
vt 0.026245 0.984253
vt 0.169312 0.984253
vt 0.184570 0.699951
vt 0.649719 0.425110
vt 0.989868 0.596130
vt 0.588318 0.022644
vt 0.034485 0.022583
vt 0.840088 0.984070
vt 0.012695 0.471252
vt 0.184570 0.699951
vt 0.185303 0.471252
vt 0.327820 0.276489
vt 0.342712 0.807495
vt 0.199646 0.807495
vt 0.199646 0.807495
vt 0.342346 0.970093
vt 0.199280 0.970093
vt 0.588318 0.022644
vt 0.989868 0.596130
vt 0.649719 0.425110
vt 0.460510 0.492615
vt 0.339417 0.121643
vt 0.470276 0.121643
vt 0.478455 0.350891
vt 0.342712 0.807495
vt 0.011902 0.699951
vt 0.011902 0.699951
vt 0.470276 0.121643
vt 0.339417 0.121643
vt 0.340637 0.010620
vt 0.470276 0.010620
vt 0.348083 0.492615
vt 0.215332 0.276489
vn -0.9968 0.0802 -0.0042
vn 0.0124 -0.0529 0.9985
vn 0.0065 -0.0461 0.9989
vn 0.0083 -0.0559 0.9984
vn 0.0150 -0.0461 -0.9988
vn 0.0219 -0.0465 -0.9987
vn 0.0210 -0.0528 -0.9984
vn 0.9585 -0.2850 0.0041
vn 0.9585 -0.2850 0.0040
vn 0.0039 -0.0343 -0.9994
vn -0.0033 -0.0298 -0.9995
vn -0.0062 -0.0240 -0.9997
vn 0.0167 -0.0559 -0.9983
vn -0.2180 0.9759 -0.0009
vn 0.8342 -0.5514 0.0035
vn 0.1313 0.9913 0.0006
vn -0.0147 -0.0240 0.9996
vn -0.0118 -0.0298 0.9995
vn -0.0045 -0.0343 0.9994
vn -0.9881 0.1540 -0.0042
vn 0.0135 -0.0465 0.9988
vn -0.2180 0.9760 -0.0009
vn 0.3976 -0.9175 0.0017
usemtl spcbonturbomat
s 1
f 1/1/1 2/2/1 3/3/1
f 4/4/2 5/5/3 6/6/4
f 7/7/5 8/8/6 9/9/7
f 10/10/8 11/11/8 12/12/9
f 13/13/10 14/14/11 15/15/12
f 1/1/1 16/16/1 2/2/1
f 7/7/5 9/9/7 17/17/13
f 18/18/14 19/19/14 20/20/14
f 21/21/15 22/22/15 23/23/15
f 24/24/16 25/25/16 26/26/16
f 27/27/17 28/28/18 29/29/19
f 30/30/20 31/31/20 32/32/20
f 33/33/21 5/5/3 4/4/2
f 29/29/19 28/28/18 5/5/3
f 24/24/16 34/34/16 25/25/16
f 13/13/10 7/7/5 14/14/11
f 10/10/8 12/12/9 35/35/9
f 18/18/14 36/36/22 19/19/14
f 37/37/23 38/38/23 39/39/23
f 29/29/19 5/5/3 33/33/21
f 37/37/23 39/39/23 40/40/23
f 7/7/5 13/13/10 8/8/6
f 30/30/20 41/41/20 31/31/20
f 21/21/15 23/23/15 42/42/15
