# Blender v3.0.0 OBJ File: 'skybox.blend'
# www.blender.org
mtllib skybox.mtl
o NegativeZ_Plane
v -15.000000 -15.000000 15.000000
v 15.000000 -15.000000 15.000000
v -15.000000 -15.000000 -15.000000
v 15.000000 -15.000000 -15.000000
vt 0.000000 0.000000
vt 1.000000 0.000000
vt 1.000000 1.000000
vt 0.000000 1.000000
vn 0.0000 1.0000 0.0000
usemtl Material.002
s off
f 1/1/1 2/2/1 4/3/1 3/4/1
o positiveX_Plane.001
v 15.000000 -15.000000 -14.999991
v 15.000000 -14.999983 15.000008
v 15.000002 15.000000 -15.000009
v 15.000001 15.000017 14.999992
vt 0.000000 0.000000
vt 1.000000 0.000000
vt 1.000000 1.000000
vt 0.000000 1.000000
vn -1.0000 0.0000 -0.0000
usemtl Material.001
s off
f 5/5/2 6/6/2 8/7/2 7/8/2
o NegativeY_Plane.003
v 15.000002 -14.999999 14.999999
v -14.999998 -15.000004 14.999999
v 14.999998 15.000001 15.000001
v -15.000002 14.999996 15.000001
vt 0.000000 0.000000
vt 1.000000 0.000000
vt 1.000000 1.000000
vt 0.000000 1.000000
vn -0.0000 0.0000 -1.0000
usemtl Material.005
s off
f 9/9/3 10/10/3 12/11/3 11/12/3
o positiveY_Plane.004
v -15.000002 -14.999999 -14.999999
v 14.999998 -15.000004 -15.000004
v -14.999998 15.000001 -15.000001
v 15.000002 14.999996 -15.000005
vt 0.000000 0.000000
vt 1.000000 0.000000
vt 1.000000 1.000000
vt 0.000000 1.000000
vn 0.0000 0.0000 1.0000
usemtl Material.004
s off
f 13/13/4 14/14/4 16/15/4 15/16/4
o positiveZ_Plane.005
v -15.000003 15.000002 -14.999995
v 14.999997 14.999998 -15.000005
v -14.999993 15.000002 15.000005
v 15.000007 14.999998 14.999995
vt 0.000000 0.000000
vt 1.000000 0.000000
vt 1.000000 1.000000
vt 0.000000 1.000000
vn -0.0000 -1.0000 0.0000
usemtl Material.003
s off
f 17/17/5 18/18/5 20/19/5 19/20/5
o negativeX_Plane.006
v -15.000001 -14.999998 15.000002
v -15.000000 -15.000003 -14.999998
v -15.000003 15.000002 14.999998
v -15.000001 14.999997 -15.000002
vt 0.000000 0.000000
vt 1.000000 0.000000
vt 1.000000 1.000000
vt 0.000000 1.000000
vn 1.0000 0.0000 0.0000
usemtl Material.006
s off
f 21/21/6 22/22/6 24/23/6 23/24/6
